# xmcd
#
# Track frame offsets:
#	150
#	27397
#	54560
#	79629
#	112870
#	133127
#	156544
#	177316
#	205986
#
# Disc length: 3035
#
# Revision: 2
# Processed by: cddbd v1.5.1PL0 Copyright (c) Steve Scherf et al.
# Submitted via: EasyCDDAExtractor 7.1.0.1
# Normalized: r1:DSETVAR1
#
DISCID=790bd909
DTITLE=Various Artist - R´s  Fest
DYEAR=2000
DGENRE=R&B
TTITLE0=United Future Organization - My Foolish Dream
TTITLE1=Jestofunk - Straight To You
TTITLE2=Liebesbrief - Thomas D.
TTITLE3=Levitation - More Than Ever People
TTITLE4=Air - All I Need
TTITLE5=Urban Species - Spiritual Love
TTITLE6=Sade - By Your Side
TTITLE7=Michael Franks - Crayon Sun (Safe at Home)
TTITLE8=Dream
EXTD=
EXTT0=
EXTT1=
EXTT2=
EXTT3=
EXTT4=
EXTT5=
EXTT6=
EXTT7=
EXTT8=
PLAYORDER=
